<svg viewBox="0 0 24 24"  xmlns="http://www.w3.org/2000/svg">
  <path d="M21.2154 21.9956H2.78928C2.4776 21.9992 2.1705 21.9196 1.89909 21.7648C1.62767 21.6101 1.40157 21.3856 1.24369 21.1142C1.08581 20.8428 1.00175 20.5341 1.00003 20.2193C0.998304 19.9045 1.07898 19.5949 1.23388 19.3217L10.4409 2.91313C10.5958 2.63554 10.8212 2.40463 11.0937 2.24415C11.3663 2.08366 11.6763 1.99939 11.9919 2H12.0007V2.00778C12.3169 2.00711 12.6276 2.09169 12.9006 2.2528C13.1737 2.41391 13.3992 2.6457 13.5539 2.92424L22.7686 19.3295C22.8838 19.5338 22.9579 19.759 22.9865 19.9923C23.0152 20.2256 22.9979 20.4623 22.9357 20.6888C22.8734 20.9154 22.7674 21.1272 22.6238 21.3122C22.4801 21.4972 22.3017 21.6517 22.0987 21.7667C21.8299 21.9193 21.5269 21.9996 21.2187 22M11.9919 4L3 20H21L11.9919 4Z" />
  <path d="M12 9C12.553 9 13 9.315 13 9.7V14.292C13 14.681 12.553 14.992 12 14.992C11.447 14.992 11 14.677 11 14.292V9.706C11 9.317 11.448 9.006 12 9.006" />
  <path d="M12 16.001C12.1978 16.001 12.3911 16.0596 12.5556 16.1695C12.72 16.2794 12.8482 16.4356 12.9239 16.6183C12.9996 16.801 13.0194 17.0021 12.9808 17.1961C12.9422 17.39 12.847 17.5682 12.7071 17.7081C12.5673 17.8479 12.3891 17.9432 12.1951 17.9818C12.0011 18.0203 11.8 18.0005 11.6173 17.9249C11.4346 17.8492 11.2784 17.721 11.1685 17.5565C11.0586 17.3921 11 17.1988 11 17.001C11 16.7358 11.1054 16.4814 11.2929 16.2939C11.4804 16.1063 11.7348 16.001 12 16.001Z" />
</svg>
