<svg viewBox="0 0 24 24" xmlns="http://www.w3.org/2000/svg">
  <path d="M22.7001 3.40884C22.2982 2.46513 21.5463 1.71362 20.6021 1.31191C19.6313 0.903575 18.5384 0.895883 17.562 1.29051C17.0767 1.48502 16.636 1.77622 16.2669 2.1464L2.86254 15.5537L1 22.9999L8.45016 21.1384L21.8544 7.74177C22.2248 7.37281 22.5162 6.93236 22.7108 6.44724C22.9032 5.96761 23.0013 5.45545 22.9998 4.93874C23.0045 4.41376 22.9025 3.89331 22.7001 3.40884ZM18.7112 8.13375L8.27891 18.5707C8.01301 17.9332 7.62792 17.3522 7.14425 16.859C6.65302 16.37 6.07133 15.9812 5.43156 15.7142L15.8753 5.29786L18.7112 8.13375ZM6.58763 19.6085L3.66536 20.336L4.39325 17.4152C4.61418 17.4776 4.82636 17.5674 5.0248 17.6828C5.29908 17.8277 5.54841 18.0155 5.7634 18.239C5.98387 18.4568 6.17139 18.7054 6.32002 18.9772C6.42464 19.1808 6.51408 19.3918 6.58763 19.6085ZM21.0731 4.94944C21.0784 5.16387 21.0458 5.37757 20.9767 5.58065C20.9077 5.76365 20.814 5.9364 20.6984 6.09419C20.5711 6.26121 20.4316 6.41855 20.2809 6.56493C20.1738 6.67192 20.2085 6.62656 20.0907 6.74425L17.2549 3.90837C17.3726 3.79069 17.3265 3.82608 17.4336 3.71909C17.58 3.56856 17.7375 3.4291 17.9045 3.30185C18.0613 3.18447 18.2344 3.09075 18.4184 3.02368C18.8818 2.87477 19.3834 2.89755 19.8313 3.08788C20.3145 3.29977 20.7005 3.68545 20.9125 4.16844C21.0189 4.41505 21.0735 4.68086 21.0731 4.94944Z" />
</svg>
