<svg viewBox="0 0 24 24" xmlns="http://www.w3.org/2000/svg">
  <path d="M19.2159 21.1966C18.9507 21.1966 18.6964 21.0913 18.5088 20.9037C18.3213 20.7162 18.2159 20.4618 18.2159 20.1966C18.2151 19.5052 17.9401 18.8423 17.4512 18.3534C16.9623 17.8644 16.2994 17.5894 15.6079 17.5886H8.39291C7.70123 17.5886 7.03787 17.8634 6.54878 18.3525C6.05968 18.8416 5.78491 19.5049 5.78491 20.1966C5.78491 20.4618 5.67956 20.7162 5.49202 20.9037C5.30448 21.0913 5.05013 21.1966 4.78491 21.1966C4.5197 21.1966 4.26534 21.0913 4.07781 20.9037C3.89027 20.7162 3.78491 20.4618 3.78491 20.1966V19.9966C3.78488 19.9403 3.78956 19.8841 3.79891 19.8286C3.89144 18.6738 4.41557 17.5962 5.26693 16.8104C6.11828 16.0247 7.23438 15.5884 8.39291 15.5886H15.6079C16.7661 15.5901 17.8813 16.0271 18.7321 16.8127C19.583 17.5984 20.1073 18.6753 20.2009 19.8296C20.2104 19.8858 20.2151 19.9427 20.2149 19.9996V20.1996C20.2141 20.4641 20.1086 20.7176 19.9213 20.9044C19.7341 21.0913 19.4805 21.1964 19.2159 21.1966Z" />
  <path d="M12.001 4.76562C12.9124 4.76562 13.8033 5.03588 14.5611 5.54221C15.3189 6.04855 15.9095 6.76822 16.2583 7.61022C16.607 8.45222 16.6983 9.37874 16.5205 10.2726C16.3427 11.1665 15.9038 11.9875 15.2594 12.632C14.6149 13.2764 13.7939 13.7153 12.9 13.8931C12.0061 14.0709 11.0796 13.9796 10.2376 13.6309C9.39566 13.2821 8.67599 12.6915 8.16965 11.9337C7.66332 11.1759 7.39307 10.285 7.39307 9.37362C7.39439 8.15191 7.8803 6.98062 8.74418 6.11674C9.60806 5.25287 10.7793 4.76695 12.001 4.76562ZM12.001 11.9806C12.5169 11.9806 13.0212 11.8276 13.4501 11.541C13.879 11.2544 14.2132 10.847 14.4106 10.3704C14.608 9.89383 14.6596 9.36939 14.5589 8.86346C14.4581 8.35753 14.2097 7.89283 13.8448 7.52814C13.48 7.16344 13.0152 6.91513 12.5092 6.81462C12.0033 6.7141 11.4788 6.76589 11.0023 6.96343C10.5258 7.16098 10.1185 7.49541 9.83211 7.92443C9.54566 8.35344 9.39287 8.85777 9.39307 9.37362C9.39412 10.0649 9.66927 10.7275 10.1581 11.2162C10.647 11.7049 11.3098 11.9798 12.001 11.9806Z" />
  <path d="M12 2C10.0222 2 8.08879 2.58649 6.4443 3.6853C4.79981 4.78412 3.51808 6.3459 2.7612 8.17317C2.00433 10.0004 1.8063 12.0111 2.19215 13.9509C2.578 15.8907 3.53041 17.6725 4.92893 19.0711C6.32746 20.4696 8.10929 21.422 10.0491 21.8079C11.9889 22.1937 13.9996 21.9957 15.8268 21.2388C17.6541 20.4819 19.2159 19.2002 20.3147 17.5557C21.4135 15.9112 22 13.9778 22 12C21.9971 9.34873 20.9426 6.80688 19.0679 4.93215C17.1931 3.05742 14.6513 2.00291 12 2ZM12 0C14.3734 0 16.6935 0.703788 18.6668 2.02236C20.6402 3.34094 22.1783 5.21509 23.0866 7.4078C23.9948 9.60051 24.2324 12.0133 23.7694 14.3411C23.3064 16.6689 22.1635 18.8071 20.4853 20.4853C18.8071 22.1635 16.6689 23.3064 14.3411 23.7694C12.0133 24.2324 9.60051 23.9948 7.4078 23.0866C5.21509 22.1783 3.34094 20.6402 2.02236 18.6668C0.703788 16.6935 0 14.3734 0 12C0 8.8174 1.26428 5.76515 3.51472 3.51472C5.76515 1.26428 8.8174 0 12 0Z" />
</svg>
