<svg viewBox="0 0 24 24" xmlns="http://www.w3.org/2000/svg">
  <path d="M23.8586 9.36667C23.6557 9.10128 23.3296 8.97706 23 9H8.5C8 9 7.60306 9.1462 7.25 9.4C6.89694 9.6538 6.66628 10.0981 6.5 10.5L5 14L4.99999 5H7.99999L9.99999 7H17V8H19V6C18.9991 5.79461 19.009 5.49114 18.75 5.25C18.491 5.00886 18.2044 4.99185 18 5H11L8.99999 3H3.73716C3.53982 3.00481 3.3523 3.08712 3.21515 3.22915C3.07799 3.37118 3.00221 3.56152 3.00419 3.759L3 19C3 19.5 3.15876 19.6471 3.25 19.75C3.36729 19.8823 3.49999 20 3.99999 20H18C19.0751 20 20 19.5 20.5 18L23.8806 10.4997C23.9699 10.3242 24.003 10.1297 24 9.93284C23.997 9.73601 23.9578 9.54291 23.8632 9.37033M21.5 11L19 16.75C18.8667 17.0642 18.5 18 17.5 18H4.99999L8 11.5C8.06297 11.3775 8.15382 11.2716 8.26522 11.1907C8.37662 11.1098 8.5 11 9 11H21.5Z" />
</svg>
