<svg width="0" height="0" position="absolute"><symbol id="icon-compress" viewBox="0 0 24 24" xmlns="http://www.w3.org/2000/svg"><path d="M6 4H21V19H16V21H21C22.1046 21 23 20.1046 23 19V4C23 2.89543 22.1046 2 21 2H6C4.89543 2 4 2.89543 4 4V6H6V4Z"></path><path d="M1 10C1 8.89544 1.89544 8 3 8H12C13.1046 8 14 8.89545 14 10V19C14 20.1046 13.1046 21 12 21H3C1.89545 21 1 20.1046 1 19V10ZM12 10H3V19H12V10Z"></path></symbol><symbol id="icon-alert" viewBox="0 0 24 24" xmlns="http://www.w3.org/2000/svg"><path d="M21.2154 21.9956H2.78928C2.4776 21.9992 2.1705 21.9196 1.89909 21.7648C1.62767 21.6101 1.40157 21.3856 1.24369 21.1142C1.08581 20.8428 1.00175 20.5341 1.00003 20.2193C0.998304 19.9045 1.07898 19.5949 1.23388 19.3217L10.4409 2.91313C10.5958 2.63554 10.8212 2.40463 11.0937 2.24415C11.3663 2.08366 11.6763 1.99939 11.9919 2H12.0007V2.00778C12.3169 2.00711 12.6276 2.09169 12.9006 2.2528C13.1737 2.41391 13.3992 2.6457 13.5539 2.92424L22.7686 19.3295C22.8838 19.5338 22.9579 19.759 22.9865 19.9923C23.0152 20.2256 22.9979 20.4623 22.9357 20.6888C22.8734 20.9154 22.7674 21.1272 22.6238 21.3122C22.4801 21.4972 22.3017 21.6517 22.0987 21.7667C21.8299 21.9193 21.5269 21.9996 21.2187 22M11.9919 4L3 20H21L11.9919 4Z"></path><path d="M12 9C12.553 9 13 9.315 13 9.7V14.292C13 14.681 12.553 14.992 12 14.992C11.447 14.992 11 14.677 11 14.292V9.706C11 9.317 11.448 9.006 12 9.006"></path><path d="M12 16.001C12.1978 16.001 12.3911 16.0596 12.5556 16.1695C12.72 16.2794 12.8482 16.4356 12.9239 16.6183C12.9996 16.801 13.0194 17.0021 12.9808 17.1961C12.9422 17.39 12.847 17.5682 12.7071 17.7081C12.5673 17.8479 12.3891 17.9432 12.1951 17.9818C12.0011 18.0203 11.8 18.0005 11.6173 17.9249C11.4346 17.8492 11.2784 17.721 11.1685 17.5565C11.0586 17.3921 11 17.1988 11 17.001C11 16.7358 11.1054 16.4814 11.2929 16.2939C11.4804 16.1063 11.7348 16.001 12 16.001Z"></path></symbol><symbol id="icon-attention" viewBox="0 0 16 16" xmlns="http://www.w3.org/2000/svg"><path d="M16 8C16 3.58172 12.4183 0 8 0C3.58172 0 0 3.58172 0 8C0 12.4183 3.58172 16 8 16C12.4183 16 16 12.4183 16 8Z"></path><path d="M7.33342 9.33334H8.66675V4.00001H7.33342L7.33342 9.33334Z" fill="#ffffff"></path><path d="M7.33342 12H8.66675V10.6667H7.33342V12Z" fill="#ffffff"></path></symbol><symbol id="icon-back" viewBox="0 0 24 24" xmlns="http://www.w3.org/2000/svg"><path d="M10.1338 7.69619C10.5183 7.29979 10.5087 6.66669 10.1122 6.28219C9.71579 5.89769 9.08269 5.90729 8.69819 6.30379L3.28219 11.8878C2.90179 12.28 2.90659 12.9048 3.29289 13.2912L8.70889 18.7071C9.09939 19.0976 9.73259 19.0976 10.1231 18.7071C10.5136 18.3166 10.5136 17.6834 10.1231 17.2929L6.33019 13.5H20.5395C21.0918 13.5 21.5395 13.0523 21.5395 12.5C21.5395 11.9477 21.0918 11.5 20.5395 11.5H6.44449L10.1338 7.69619Z"></path></symbol><symbol id="icon-convert" viewBox="0 0 24 24" xmlns="http://www.w3.org/2000/svg"><path d="M15 20.5V21H5V7H11L15 11V15.5H17V10L12 5H5C3.9 5 3 5.9 3 7V21C3 22.1 3.9 23 5 23H15C16.1 23 17 22.1 17 21V20.5H15Z"></path><path d="M23 18L19 14V17H10V19H19V22L23 18Z"></path><path d="M19 7V11.9L20.1 13L21 13.9V6L16 1H8C6.9 1 6 1.9 6 3V4H8V3H15L19 7Z"></path></symbol><symbol id="icon-edit" viewBox="0 0 24 24" xmlns="http://www.w3.org/2000/svg"><path d="M22.7001 3.40884C22.2982 2.46513 21.5463 1.71362 20.6021 1.31191C19.6313 0.903575 18.5384 0.895883 17.562 1.29051C17.0767 1.48502 16.636 1.77622 16.2669 2.1464L2.86254 15.5537L1 22.9999L8.45016 21.1384L21.8544 7.74177C22.2248 7.37281 22.5162 6.93236 22.7108 6.44724C22.9032 5.96761 23.0013 5.45545 22.9998 4.93874C23.0045 4.41376 22.9025 3.89331 22.7001 3.40884ZM18.7112 8.13375L8.27891 18.5707C8.01301 17.9332 7.62792 17.3522 7.14425 16.859C6.65302 16.37 6.07133 15.9812 5.43156 15.7142L15.8753 5.29786L18.7112 8.13375ZM6.58763 19.6085L3.66536 20.336L4.39325 17.4152C4.61418 17.4776 4.82636 17.5674 5.0248 17.6828C5.29908 17.8277 5.54841 18.0155 5.7634 18.239C5.98387 18.4568 6.17139 18.7054 6.32002 18.9772C6.42464 19.1808 6.51408 19.3918 6.58763 19.6085ZM21.0731 4.94944C21.0784 5.16387 21.0458 5.37757 20.9767 5.58065C20.9077 5.76365 20.814 5.9364 20.6984 6.09419C20.5711 6.26121 20.4316 6.41855 20.2809 6.56493C20.1738 6.67192 20.2085 6.62656 20.0907 6.74425L17.2549 3.90837C17.3726 3.79069 17.3265 3.82608 17.4336 3.71909C17.58 3.56856 17.7375 3.4291 17.9045 3.30185C18.0613 3.18447 18.2344 3.09075 18.4184 3.02368C18.8818 2.87477 19.3834 2.89755 19.8313 3.08788C20.3145 3.29977 20.7005 3.68545 20.9125 4.16844C21.0189 4.41505 21.0735 4.68086 21.0731 4.94944Z"></path></symbol><symbol id="icon-more" viewBox="0 0 24 24" xmlns="http://www.w3.org/2000/svg"><path d="M12 19C12.8284 19 13.5 18.3284 13.5 17.5C13.5 16.6716 12.8284 16 12 16C11.1716 16 10.5 16.6716 10.5 17.5C10.5 18.3284 11.1716 19 12 19Z"></path><path d="M12 13.5C12.8284 13.5 13.5 12.8284 13.5 12C13.5 11.1716 12.8284 10.5 12 10.5C11.1716 10.5 10.5 11.1716 10.5 12C10.5 12.8284 11.1716 13.5 12 13.5Z"></path><path d="M12 8C12.8284 8 13.5 7.32843 13.5 6.5C13.5 5.67157 12.8284 5 12 5C11.1716 5 10.5 5.67157 10.5 6.5C10.5 7.32843 11.1716 8 12 8Z"></path></symbol><symbol id="icon-merge" viewBox="0 0 24 24" xmlns="http://www.w3.org/2000/svg"><path d="M17 1H10C8.9 1 8 1.9 8 3V4H10V3H16L20 7V16.5V16.7V17H19V19H20C21.1 19 22 18.1 22 17V16.7V16.5V6L17 1Z"></path><path d="M13 5H6C4.9 5 4 5.9 4 7V13H6V7H12L16 11V20.5V20.7V21H10V23H16C17.1 23 18 22.1 18 21V20.7V20.5V10L13 5Z"></path><path d="M9 18H6V15H4V18H1V20H4V23H6V20H9V18Z"></path></symbol><symbol id="icon-open-pdf" viewBox="0 0 24 24" xmlns="http://www.w3.org/2000/svg"><path d="M23.8586 9.36667C23.6557 9.10128 23.3296 8.97706 23 9H8.5C8 9 7.60306 9.1462 7.25 9.4C6.89694 9.6538 6.66628 10.0981 6.5 10.5L5 14L4.99999 5H7.99999L9.99999 7H17V8H19V6C18.9991 5.79461 19.009 5.49114 18.75 5.25C18.491 5.00886 18.2044 4.99185 18 5H11L8.99999 3H3.73716C3.53982 3.00481 3.3523 3.08712 3.21515 3.22915C3.07799 3.37118 3.00221 3.56152 3.00419 3.759L3 19C3 19.5 3.15876 19.6471 3.25 19.75C3.36729 19.8823 3.49999 20 3.99999 20H18C19.0751 20 20 19.5 20.5 18L23.8806 10.4997C23.9699 10.3242 24.003 10.1297 24 9.93284C23.997 9.73601 23.9578 9.54291 23.8632 9.37033M21.5 11L19 16.75C18.8667 17.0642 18.5 18 17.5 18H4.99999L8 11.5C8.06297 11.3775 8.15382 11.2716 8.26522 11.1907C8.37662 11.1098 8.5 11 9 11H21.5Z"></path></symbol><symbol id="icon-signout" viewBox="0 0 24 24" xmlns="http://www.w3.org/2000/svg"><path d="M19 3H5C4.46957 3 3.96086 3.21071 3.58579 3.58579C3.21071 3.96086 3 4.46957 3 5V9H5V5H19V19H5V15H3V19C3 19.5304 3.21071 20.0391 3.58579 20.4142C3.96086 20.7893 4.46957 21 5 21H19C19.5299 20.9984 20.0377 20.7872 20.4125 20.4125C20.7872 20.0377 20.9984 19.5299 21 19V5C20.9984 4.47005 20.7872 3.96227 20.4125 3.58753C20.0377 3.2128 19.5299 3.00158 19 3Z"></path><path d="M2 12C2 11.4477 2.44772 11 3 11H14C14.5523 11 15 11.4477 15 12C15 12.5523 14.5523 13 14 13H3C2.44772 13 2 12.5523 2 12Z"></path><path d="M10.2929 7.29289C10.6834 6.90237 11.3166 6.90237 11.7071 7.29289L15.7071 11.2929C16.0976 11.6834 16.0976 12.3166 15.7071 12.7071C15.3166 13.0976 14.6834 13.0976 14.2929 12.7071L10.2929 8.70711C9.90237 8.31658 9.90237 7.68342 10.2929 7.29289Z"></path><path d="M15.7071 11.2929C16.0976 11.6834 16.0976 12.3166 15.7071 12.7071L11.7071 16.7071C11.3166 17.0976 10.6834 17.0976 10.2929 16.7071C9.90237 16.3166 9.90237 15.6834 10.2929 15.2929L14.2929 11.2929C14.6834 10.9024 15.3166 10.9024 15.7071 11.2929Z"></path></symbol><symbol id="icon-user" viewBox="0 0 24 24" xmlns="http://www.w3.org/2000/svg"><path d="M19.2159 21.1966C18.9507 21.1966 18.6964 21.0913 18.5088 20.9037C18.3213 20.7162 18.2159 20.4618 18.2159 20.1966C18.2151 19.5052 17.9401 18.8423 17.4512 18.3534C16.9623 17.8644 16.2994 17.5894 15.6079 17.5886H8.39291C7.70123 17.5886 7.03787 17.8634 6.54878 18.3525C6.05968 18.8416 5.78491 19.5049 5.78491 20.1966C5.78491 20.4618 5.67956 20.7162 5.49202 20.9037C5.30448 21.0913 5.05013 21.1966 4.78491 21.1966C4.5197 21.1966 4.26534 21.0913 4.07781 20.9037C3.89027 20.7162 3.78491 20.4618 3.78491 20.1966V19.9966C3.78488 19.9403 3.78956 19.8841 3.79891 19.8286C3.89144 18.6738 4.41557 17.5962 5.26693 16.8104C6.11828 16.0247 7.23438 15.5884 8.39291 15.5886H15.6079C16.7661 15.5901 17.8813 16.0271 18.7321 16.8127C19.583 17.5984 20.1073 18.6753 20.2009 19.8296C20.2104 19.8858 20.2151 19.9427 20.2149 19.9996V20.1996C20.2141 20.4641 20.1086 20.7176 19.9213 20.9044C19.7341 21.0913 19.4805 21.1964 19.2159 21.1966Z"></path><path d="M12.001 4.76562C12.9124 4.76562 13.8033 5.03588 14.5611 5.54221C15.3189 6.04855 15.9095 6.76822 16.2583 7.61022C16.607 8.45222 16.6983 9.37874 16.5205 10.2726C16.3427 11.1665 15.9038 11.9875 15.2594 12.632C14.6149 13.2764 13.7939 13.7153 12.9 13.8931C12.0061 14.0709 11.0796 13.9796 10.2376 13.6309C9.39566 13.2821 8.67599 12.6915 8.16965 11.9337C7.66332 11.1759 7.39307 10.285 7.39307 9.37362C7.39439 8.15191 7.8803 6.98062 8.74418 6.11674C9.60806 5.25287 10.7793 4.76695 12.001 4.76562ZM12.001 11.9806C12.5169 11.9806 13.0212 11.8276 13.4501 11.541C13.879 11.2544 14.2132 10.847 14.4106 10.3704C14.608 9.89383 14.6596 9.36939 14.5589 8.86346C14.4581 8.35753 14.2097 7.89283 13.8448 7.52814C13.48 7.16344 13.0152 6.91513 12.5092 6.81462C12.0033 6.7141 11.4788 6.76589 11.0023 6.96343C10.5258 7.16098 10.1185 7.49541 9.83211 7.92443C9.54566 8.35344 9.39287 8.85777 9.39307 9.37362C9.39412 10.0649 9.66927 10.7275 10.1581 11.2162C10.647 11.7049 11.3098 11.9798 12.001 11.9806Z"></path><path d="M12 2C10.0222 2 8.08879 2.58649 6.4443 3.6853C4.79981 4.78412 3.51808 6.3459 2.7612 8.17317C2.00433 10.0004 1.8063 12.0111 2.19215 13.9509C2.578 15.8907 3.53041 17.6725 4.92893 19.0711C6.32746 20.4696 8.10929 21.422 10.0491 21.8079C11.9889 22.1937 13.9996 21.9957 15.8268 21.2388C17.6541 20.4819 19.2159 19.2002 20.3147 17.5557C21.4135 15.9112 22 13.9778 22 12C21.9971 9.34873 20.9426 6.80688 19.0679 4.93215C17.1931 3.05742 14.6513 2.00291 12 2ZM12 0C14.3734 0 16.6935 0.703788 18.6668 2.02236C20.6402 3.34094 22.1783 5.21509 23.0866 7.4078C23.9948 9.60051 24.2324 12.0133 23.7694 14.3411C23.3064 16.6689 22.1635 18.8071 20.4853 20.4853C18.8071 22.1635 16.6689 23.3064 14.3411 23.7694C12.0133 24.2324 9.60051 23.9948 7.4078 23.0866C5.21509 22.1783 3.34094 20.6402 2.02236 18.6668C0.703788 16.6935 0 14.3734 0 12C0 8.8174 1.26428 5.76515 3.51472 3.51472C5.76515 1.26428 8.8174 0 12 0Z"></path></symbol><symbol id="icon-switch-theme" viewBox="0 0 24 24" xmlns="http://www.w3.org/2000/svg"><path d="M12 7C9.23858 7 7 9.23858 7 12C7 14.7614 9.23858 17 12 17C14.7614 17 17 14.7614 17 12C17 9.23858 14.7614 7 12 7ZM5 12C5 8.13401 8.13401 5 12 5C15.866 5 19 8.13401 19 12C19 15.866 15.866 19 12 19C8.13401 19 5 15.866 5 12Z"></path><path d="M12 19C15.866 19 19 15.866 19 12C19 8.13401 15.866 5 12 5V19Z"></path><path d="M3 11H1C0.447715 11 0 11.4477 0 12C0 12.5523 0.447715 13 1 13H3C3.55228 13 4 12.5523 4 12C4 11.4477 3.55228 11 3 11Z"></path><path d="M23 11H21C20.4477 11 20 11.4477 20 12C20 12.5523 20.4477 13 21 13H23C23.5523 13 24 12.5523 24 12C24 11.4477 23.5523 11 23 11Z"></path><path d="M13 3V1C13 0.447715 12.5523 0 12 0C11.4477 0 11 0.447715 11 1V3C11 3.55228 11.4477 4 12 4C12.5523 4 13 3.55228 13 3Z"></path><path d="M13 23V21C13 20.4477 12.5523 20 12 20C11.4477 20 11 20.4477 11 21V23C11 23.5523 11.4477 24 12 24C12.5523 24 13 23.5523 13 23Z"></path><path d="M2.51457 2.51472C2.9051 2.1242 3.53826 2.1242 3.92879 2.51472L6.343 4.92894C6.73352 5.31946 6.73352 5.95263 6.343 6.34315C5.95248 6.73368 5.31931 6.73368 4.92879 6.34315L2.51457 3.92894C2.12405 3.53841 2.12405 2.90525 2.51457 2.51472Z"></path><path d="M17.6569 17.6568C18.0474 17.2663 18.6806 17.2663 19.0711 17.6568L21.4853 20.071C21.8759 20.4616 21.8759 21.0947 21.4853 21.4852C21.0948 21.8758 20.4616 21.8758 20.0711 21.4852L17.6569 19.071C17.2664 18.6805 17.2664 18.0473 17.6569 17.6568Z"></path><path d="M19.0711 6.34312L20.4853 4.92891C20.8758 4.53838 20.8758 3.90522 20.4853 3.51469C20.0948 3.12417 19.4616 3.12417 19.0711 3.51469L17.6568 4.92891C17.2663 5.31943 17.2663 5.9526 17.6568 6.34312C18.0474 6.73365 18.6805 6.73365 19.0711 6.34312Z"></path><path d="M4.92897 20.4852L6.34319 19.071C6.73371 18.6805 6.73371 18.0473 6.34319 17.6568C5.95266 17.2663 5.3195 17.2663 4.92897 17.6568L3.51476 19.071C3.12423 19.4615 3.12423 20.0947 3.51476 20.4852C3.90528 20.8757 4.53845 20.8757 4.92897 20.4852Z"></path></symbol></svg>