<svg width="32" height="32" viewBox="0 0 32 32" fill="none" xmlns="http://www.w3.org/2000/svg">
<rect width="32" height="32" rx="2.85714" fill="#FF3344"/>
<path d="M18.7394 14.721L16.2335 14.161C14.1285 13.705 12.7244 13.285 12.7244 11.744C12.7244 10.168 14.0244 9.18701 15.9324 9.18701C16.6928 9.14643 17.4531 9.26917 18.162 9.54706C18.871 9.82495 19.5121 10.2515 20.0424 10.798L22.1815 9.18701C20.8115 7.43601 18.7395 6.73499 16.0325 6.73499C12.3905 6.73499 9.75043 8.906 9.75043 12.198C9.75043 14.79 11.5885 16.191 14.4625 16.751L16.5004 17.171C18.8064 17.626 19.8754 18.116 19.8754 19.871C19.8754 21.797 17.9375 22.708 16.0325 22.708C15.0953 22.7364 14.1638 22.5528 13.3076 22.1708C12.4513 21.7889 11.6924 21.2184 11.0875 20.502L8.98242 22.218C10.6204 24.459 13.2265 25.265 16.1005 25.265C19.4085 25.265 23.0175 23.339 23.0175 19.416C23.0175 16.789 21.3794 15.284 18.7404 14.723" fill="white"/>
</svg>
