<svg viewBox="0 0 24 24" xmlns="http://www.w3.org/2000/svg">
  <path d="M12 7C9.23858 7 7 9.23858 7 12C7 14.7614 9.23858 17 12 17C14.7614 17 17 14.7614 17 12C17 9.23858 14.7614 7 12 7ZM5 12C5 8.13401 8.13401 5 12 5C15.866 5 19 8.13401 19 12C19 15.866 15.866 19 12 19C8.13401 19 5 15.866 5 12Z" />
  <path d="M12 19C15.866 19 19 15.866 19 12C19 8.13401 15.866 5 12 5V19Z" />
  <path d="M3 11H1C0.447715 11 0 11.4477 0 12C0 12.5523 0.447715 13 1 13H3C3.55228 13 4 12.5523 4 12C4 11.4477 3.55228 11 3 11Z" />
  <path d="M23 11H21C20.4477 11 20 11.4477 20 12C20 12.5523 20.4477 13 21 13H23C23.5523 13 24 12.5523 24 12C24 11.4477 23.5523 11 23 11Z" />
  <path d="M13 3V1C13 0.447715 12.5523 0 12 0C11.4477 0 11 0.447715 11 1V3C11 3.55228 11.4477 4 12 4C12.5523 4 13 3.55228 13 3Z" />
  <path d="M13 23V21C13 20.4477 12.5523 20 12 20C11.4477 20 11 20.4477 11 21V23C11 23.5523 11.4477 24 12 24C12.5523 24 13 23.5523 13 23Z" />
  <path d="M2.51457 2.51472C2.9051 2.1242 3.53826 2.1242 3.92879 2.51472L6.343 4.92894C6.73352 5.31946 6.73352 5.95263 6.343 6.34315C5.95248 6.73368 5.31931 6.73368 4.92879 6.34315L2.51457 3.92894C2.12405 3.53841 2.12405 2.90525 2.51457 2.51472Z" />
  <path d="M17.6569 17.6568C18.0474 17.2663 18.6806 17.2663 19.0711 17.6568L21.4853 20.071C21.8759 20.4616 21.8759 21.0947 21.4853 21.4852C21.0948 21.8758 20.4616 21.8758 20.0711 21.4852L17.6569 19.071C17.2664 18.6805 17.2664 18.0473 17.6569 17.6568Z" />
  <path d="M19.0711 6.34312L20.4853 4.92891C20.8758 4.53838 20.8758 3.90522 20.4853 3.51469C20.0948 3.12417 19.4616 3.12417 19.0711 3.51469L17.6568 4.92891C17.2663 5.31943 17.2663 5.9526 17.6568 6.34312C18.0474 6.73365 18.6805 6.73365 19.0711 6.34312Z" />
  <path d="M4.92897 20.4852L6.34319 19.071C6.73371 18.6805 6.73371 18.0473 6.34319 17.6568C5.95266 17.2663 5.3195 17.2663 4.92897 17.6568L3.51476 19.071C3.12423 19.4615 3.12423 20.0947 3.51476 20.4852C3.90528 20.8757 4.53845 20.8757 4.92897 20.4852Z" />
</svg>
